<?xml version="1.0" encoding="UTF-8"?>
<svg version="1.1" xmlns="http://www.w3.org/2000/svg" width="46" height="62">
<path d="M0 0 C3.15850062 2.75356464 3.90662809 4.34639662 4.5 8.5 C3.91782375 12.57523377 2.97254 14.19260111 0 17 C-2.25 17.8125 -2.25 17.8125 -4 18 C-4 19.65 -4 21.3 -4 23 C0.29 23 4.58 23 9 23 C9 23.99 9 24.98 9 26 C4.71 26 0.42 26 -4 26 C-4.52870994 35.05924154 -4.9497671 42.82037028 1.36230469 49.9152832 C3.82563734 52.39241109 6.34225497 54.73109549 9 57 C8.67 57.99 8.34 58.98 8 60 C6.3719224 58.3989569 4.74764115 56.79405264 3.125 55.1875 C2.22007813 54.29417969 1.31515625 53.40085938 0.3828125 52.48046875 C-2 50 -2 50 -4 47 C-8.08347979 48.54762019 -9.99849733 51.22547982 -12.625 54.625 C-14.03873986 56.45205916 -15.48745515 58.2538575 -17 60 C-17.66 60 -18.32 60 -19 60 C-18.64984717 56.23585707 -16.77233531 54.72592038 -14.05004883 52.29394531 C-8.87401785 47.55570432 -6.38583094 43.84245313 -5.87109375 36.72705078 C-5.78613961 33.13561464 -5.82851796 29.58915903 -6 26 C-10.29 26 -14.58 26 -19 26 C-19 25.01 -19 24.02 -19 23 C-14.71 23 -10.42 23 -6 23 C-6 21.35 -6 19.7 -6 18 C-6.763125 17.7525 -7.52625 17.505 -8.3125 17.25 C-11.37754038 15.82439982 -12.46110282 14.99679976 -14 12 C-14.53561062 7.79163084 -14.46774118 5.74193428 -12.1875 2.125 C-8.28149586 -1.66940403 -5.0774203 -1.24708569 0 0 Z " fill="#D0D0D0" transform="translate(28,2)"/>
<path d="M0 0 C2 1.6875 2 1.6875 3 4 C2.92974155 7.44266385 2.60090824 9.28353249 0.375 11.9375 C-3.11319754 13.49800943 -5.36432898 12.99154664 -9 12 C-11 10.3125 -11 10.3125 -12 8 C-11.92974155 4.55733615 -11.60090824 2.71646751 -9.375 0.0625 C-5.88680246 -1.49800943 -3.63567102 -0.99154664 0 0 Z " fill="#F0F0F0" transform="translate(27,4)"/>
<path d="M0 0 C1.9375 1.0625 1.9375 1.0625 3 3 C3.52892689 7.68478106 3.6691709 9.87674884 1.25 13.9375 C-1 16 -1 16 -5 17 C-5 25.91 -5 34.82 -5 44 C-5.33 44 -5.66 44 -6 44 C-6 38.06 -6 32.12 -6 26 C-10.29 26 -14.58 26 -19 26 C-19 25.01 -19 24.02 -19 23 C-14.71 23 -10.42 23 -6 23 C-6 21.35 -6 19.7 -6 18 C-6.763125 17.7525 -7.52625 17.505 -8.3125 17.25 C-11.37754038 15.82439982 -12.46110282 14.99679976 -14 12 C-14.53561062 7.79163084 -14.46774118 5.74193428 -12.1875 2.125 C-8.25393812 -1.69617439 -5.11612766 -1.09631307 0 0 Z M-13 6 C-13.07089184 9.54459212 -12.65406211 11.22015672 -10.375 13.9375 C-6.88680246 15.49800943 -4.63567102 14.99154664 -1 14 C1.14782671 12.44202118 1.14782671 12.44202118 2 10 C1.92857348 6.50010028 1.66021066 4.70736857 -0.75 2.125 C-6.3492417 -0.67462085 -9.39390374 1.12116388 -13 6 Z " fill="#ACACAC" transform="translate(28,2)"/>
<path d="M0 0 C0.33 0 0.66 0 1 0 C1.3183515 4.0589816 1.39717586 6.3474968 -0.75 9.875 C-2.96160897 11.96374181 -4.02750614 12.68151851 -7 13 C-7 14.65 -7 16.3 -7 18 C-2.71 18 1.58 18 6 18 C6 18.99 6 19.98 6 21 C1.71 21 -2.58 21 -7 21 C-7 26.61 -7 32.22 -7 38 C-7.33 38 -7.66 38 -8 38 C-8.17415915 33.75051671 -8.28081127 29.50194845 -8.375 25.25 C-8.42527344 24.0434375 -8.47554687 22.836875 -8.52734375 21.59375 C-8.58235164 18.29327643 -8.57877985 15.2510924 -8 12 C-5.0625 9.4375 -5.0625 9.4375 -2 8 C-0.88783971 5.92789308 -0.88783971 5.92789308 -0.625 3.75 C-0.41875 2.5125 -0.2125 1.275 0 0 Z " fill="#ECECEC" transform="translate(31,7)"/>
<path d="M0 0 C4.29 0 8.58 0 13 0 C13 0.99 13 1.98 13 3 C8.71 3 4.42 3 0 3 C0 2.01 0 1.02 0 0 Z " fill="#D8D8D8" transform="translate(9,25)"/>
<path d="M0 0 C0 3.74016583 -0.9341591 4.45276193 -3.375 7.1875 C-4.00148438 7.90292969 -4.62796875 8.61835937 -5.2734375 9.35546875 C-7 11 -7 11 -9 11 C-8.46324097 7.14896699 -6.88399077 5.68202413 -3.9375 3.25 C-3.20402344 2.63640625 -2.47054688 2.0228125 -1.71484375 1.390625 C-1.14894531 0.93171875 -0.58304688 0.4728125 0 0 Z " fill="#E0E0E0" transform="translate(18,51)"/>
<path d="M0 0 C1.9375 1.5625 1.9375 1.5625 3 3 C2.67 3.66 2.34 4.32 2 5 C1.29875 4.505 0.5975 4.01 -0.125 3.5 C-3.37119719 1.8063319 -5.39340156 1.74837685 -9 2 C-9.33 1.34 -9.66 0.68 -10 0 C-6.22941703 -1.25686099 -3.86146303 -0.82745636 0 0 Z " fill="#C9C9C9" transform="translate(28,2)"/>
</svg>
